<svg xmlns="http://www.w3.org/2000/svg" role="img" viewBox="0 0 360 180">
  <title>Coordinated Export</title>
  <rect class="background" x="0" y="0" width="360" height="180" fill="#ffffff"/>
  <rect class="group" data-id="system" x="0" y="0" width="340" height="160" fill="#f9fafb" stroke="#374151" stroke-dasharray="6 4"/>
  <path class="edge" data-id="edge-alpha-beta" d="M 120 50 L 180 50 L 180 110" fill="none" stroke="#111827" stroke-width="1.5"/>
  <polygon class="edge-arrowhead" data-edge="edge-alpha-beta" points="180,120 176,110 184,110" fill="#111827" stroke="#111827"/>
  <rect class="node node-rounded-rectangle" data-id="alpha" fill="#f8fafc" stroke="#374151" rx="8" ry="8" x="10" y="20" width="110" height="60"/>
  <path class="node node-cylinder" data-id="beta" fill="#f8fafc" stroke="#374151" d="M 180 132 A 60 12 0 0 1 300 132 L 300 178 A 60 12 0 0 1 180 178 Z M 180 132 A 60 12 0 0 0 300 132 M 180 178 A 60 12 0 0 0 300 178 M 240 120"/>
  <text class="label" data-for="system" x="170" y="80" text-anchor="middle" dominant-baseline="middle" font-family="Arial, sans-serif" font-size="14" fill="#111827">System Boundary</text>
  <text class="label" data-for="alpha" font-family="Arial, sans-serif" font-size="14" fill="#111827">
    <tspan x="20" y="53">Alpha 服务</tspan>
  </text>
  <text class="label" data-for="beta" font-family="Arial, sans-serif" font-size="14" fill="#111827">
    <tspan x="200" y="160">Beta DB</tspan>
  </text>
</svg>
